# xmcd CD database file
#
# Track frame offsets:
#	150
#	13330
#	28862
#	38038
#	54573
#	66621
#	82370
#	94907
#	108828
#	126536
#	139524
#
# Disc length: 2408 seconds
#
# Revision: 0
# Processed by: cddbd v1.5.2PL0 Copyright (c) Steve Scherf et al.
# Submitted via: CDex 1.95
#
DISCID=a409660b
DTITLE=Big John Mills and the Texas Road Dawgs - Honky Tonks and Neon Lights
DYEAR=2002
DGENRE=Country
TTITLE0=I See You For What You Are
TTITLE1=Jim Beam and Jack Daniels (Wrote my favorite songs)
TTITLE2=When I Read Between The Lines
TTITLE3=Today Ain't Your Day
TTITLE4=Chasin Our Dreams Out On The Road
TTITLE5=One Little Lie
TTITLE6=She Rules The Roost
TTITLE7=Hop, Skip and a Jump (Over You)
TTITLE8=There's A New Outlaw in Heaven
TTITLE9=Texas Nights
TTITLE10=Don't Jazz Da Boat
EXTD=YEAR: 2002
EXTT0=
EXTT1=
EXTT2=
EXTT3=
EXTT4=
EXTT5=
EXTT6=
EXTT7=
EXTT8=
EXTT9=
EXTT10=
PLAYORDER=
